<svg id="Layer_1" height="30" width="30" viewBox="0 0 64 64" xmlns="http://www.w3.org/2000/svg" xmlns:xlink="http://www.w3.org/1999/xlink" data-name="Layer 1"><linearGradient id="linear-gradient" gradientUnits="userSpaceOnUse" x1="32" x2="32" y1="29.83" y2="5.298"><stop offset="0" stop-color="#5c1355"/><stop offset="1" stop-color="#a9339d"/></linearGradient><linearGradient id="linear-gradient-2" x1="34.489" x2="3.424" xlink:href="#linear-gradient" y1="32" y2="32"/><linearGradient id="linear-gradient-3" x1="32" x2="32" xlink:href="#linear-gradient" y1="29.426" y2="62.075"/><linearGradient id="linear-gradient-4" x1="32" x2="63" xlink:href="#linear-gradient" y1="32" y2="32"/><linearGradient id="linear-gradient-5" gradientUnits="userSpaceOnUse" x1="28.64" x2="14.597" y1="33.243" y2="13.073"><stop offset="0" stop-color="#930084"/><stop offset=".997" stop-color="#a9339d"/></linearGradient><linearGradient id="linear-gradient-6" x1="30.061" x2="10.912" xlink:href="#linear-gradient-5" y1="31.739" y2="54.292"/><linearGradient id="linear-gradient-7" x1="31.446" x2="51.106" xlink:href="#linear-gradient-5" y1="33.384" y2="50.491"/><linearGradient id="linear-gradient-8" x1="32.663" x2="51.216" xlink:href="#linear-gradient-5" y1="33.657" y2="11.955"/><radialGradient id="radial-gradient" cx="31.766" cy="32.128" gradientUnits="userSpaceOnUse" r="10.628"><stop offset="0" stop-color="#f7af00"/><stop offset=".99" stop-color="#feed01" stop-opacity=".99"/></radialGradient><radialGradient id="radial-gradient-9" cx="32.106" cy="31.957" gradientUnits="userSpaceOnUse" r="4.637"><stop offset=".003" stop-color="#ff6b00"/><stop offset="1" stop-color="#f7931e"/></radialGradient><path d="m32 32c10-6.126 10-17.937 10-21s-2-10-10-10-10 6.937-10 10 0 14.874 10 21z" fill="url(#linear-gradient)"/><path d="m32 32c-6.126-10-17.937-10-21-10s-10 2-10 10 6.937 10 10 10 14.874 0 21-10z" fill="url(#linear-gradient-2)"/><path d="m32 32c-10 6.126-10 17.937-10 21s2 10 10 10 10-6.937 10-10 0-14.874-10-21z" fill="url(#linear-gradient-3)"/><path d="m32 32c6.126 10 17.937 10 21 10s10-2 10-10-6.937-10-10-10-14.874 0-21 10z" fill="url(#linear-gradient-4)"/><path d="m32 32c2.739-11.4-5.612-19.754-7.778-21.92s-8.485-5.657-14.142 0-2.166 11.976 0 14.142 10.52 10.517 21.92 7.778z" fill="url(#linear-gradient-5)"/><path d="m32 32c-11.4-2.739-19.754 5.612-21.92 7.778s-5.657 8.485 0 14.142 11.976 2.166 14.142 0 10.517-10.52 7.778-21.92z" fill="url(#linear-gradient-6)"/><path d="m32 32c-2.739 11.4 5.612 19.754 7.778 21.92s8.485 5.657 14.142 0 2.166-11.976 0-14.142-10.52-10.517-21.92-7.778z" fill="url(#linear-gradient-7)"/><path d="m32 32c11.4 2.739 19.754-5.612 21.92-7.778s5.657-8.485 0-14.142-11.976-2.166-14.142 0-10.517 10.52-7.778 21.92z" fill="url(#linear-gradient-8)"/><g fill="url(#radial-gradient)"><circle cx="32" cy="25" r="4"/><circle cx="27" cy="27" r="4"/><circle cx="25" cy="32" r="4"/><circle cx="27" cy="37" r="4"/><circle cx="32" cy="39" r="4"/><circle cx="37" cy="37" r="4"/><circle cx="39" cy="32" r="4"/><circle cx="37" cy="27" r="4"/></g><circle cx="32" cy="32" fill="url(#radial-gradient-9)" r="5"/></svg>