<svg id="Layer_1" enable-background="new 0 0 510.968 510.968" height="512" viewBox="0 0 510.968 510.968" width="512" xmlns="http://www.w3.org/2000/svg"><g><g fill="#f79caf"><path d="m317.024 353.884c.318.715.411.823-.19-.38.06.13.13.26.19.38z"/><path d="m494.954 383.484h-43.2c0-108.39-87.88-196.27-196.27-196.27s-196.27 87.88-196.27 196.27h-43.2c-9.21 0-16.58-7.76-15.98-16.95 8.72-133.48 119.76-239.05 255.45-239.05s246.73 105.57 255.45 239.05c.6 9.19-6.77 16.95-15.98 16.95z"/><path d="m317.024 353.884c.318.715.411.823-.19-.38.06.13.13.26.19.38z"/></g><path d="m451.754 383.484h-59.74c0-75.4-61.13-136.53-136.53-136.53s-136.53 61.13-136.53 136.53h-59.74c0-108.39 87.88-196.27 196.27-196.27s196.27 87.88 196.27 196.27z" fill="#f3d4b7"/><path d="m317.274 354.414c-.385-.796-.633-1.295-.25-.53.08.18.17.35.25.53z" fill="#f79caf"/><path d="m392.014 383.484h-53.79c-7.69 0-14.26-5.47-15.71-13.02-5.581-27.87-26.474-47.372-50.37-53.2-36.51-9.128-71.755 12.785-81.86 45.92 0 .004-.675 1.893-1.83 7.28-1.45 7.55-8.02 13.02-15.71 13.02h-53.79c0-75.4 61.13-136.53 136.53-136.53s136.53 61.13 136.53 136.53z" fill="#acebe2"/><path d="m317.274 354.414c-.385-.796-.633-1.295-.25-.53.08.18.17.35.25.53z" fill="#f79caf"/></g></svg>