<svg id="Capa_1" enable-background="new 0 0 512 512" viewBox="0 0 512 512" xmlns="http://www.w3.org/2000/svg"><g><g><g><path d="m255.855 102.166c22.028 60.522-9.428 127.534-9.428 127.534s-67.171-31.114-89.199-91.637c-16.577-45.544-2.866-94.764 4.936-116.335 2.223-6.147 9.477-8.787 15.131-5.507 19.843 11.509 61.983 40.4 78.56 85.945z" fill="#ffc344"/></g><g><path d="m157.006 138.249c55.778 32.203 74.755 103.756 74.755 103.756s-71.456 19.342-127.233-12.862c-41.974-24.234-63.108-70.751-70.998-92.291-2.248-6.138 1.611-12.823 8.051-13.945 22.599-3.936 73.451-8.891 115.425 15.342z" fill="#ffc344"/></g><g><path d="m104.478 229.43c63.428-11.184 123.959 31.43 123.959 31.43s-42.306 60.747-105.734 71.931c-47.731 8.416-93.822-13.633-113.711-25.062-5.668-3.257-7.008-10.859-2.796-15.858 14.781-17.541 50.551-54.025 98.282-62.441z" fill="#ffc344"/></g><g><path d="m122.848 333.043c41.4-49.338 115.161-55.602 115.161-55.602s6.64 73.729-34.76 123.067c-31.154 37.128-80.635 49.864-103.217 53.893-6.435 1.148-12.349-3.814-12.335-10.35.047-22.94 3.997-73.88 35.151-111.008z" fill="#ffc344"/></g><g><path d="m203.522 400.606c0-64.406 52.478-116.618 52.478-116.618s52.478 52.212 52.478 116.618c0 48.467-29.718 90.029-44.427 107.632-4.191 5.016-11.911 5.016-16.102 0-14.709-17.603-44.427-59.164-44.427-107.632z" fill="#ffc344"/></g><g><path d="m308.751 400.507c-41.4-49.338-34.76-123.067-34.76-123.067s73.762 6.264 115.161 55.602c31.154 37.128 35.104 88.069 35.151 111.008.013 6.537-5.9 11.499-12.335 10.35-22.583-4.029-72.063-16.765-103.217-53.893z" fill="#ffc344"/></g><g><path d="m389.297 332.792c-63.428-11.184-105.734-71.931-105.734-71.931s60.531-42.614 123.959-31.43c47.731 8.416 83.501 44.9 98.282 62.442 4.212 4.999 2.872 12.601-2.796 15.858-19.89 11.427-65.98 33.477-113.711 25.061z" fill="#ffc344"/></g><g><path d="m407.472 229.144c-55.778 32.203-127.233 12.862-127.233 12.862s18.978-71.553 74.755-103.756c41.974-24.234 92.826-19.278 115.425-15.341 6.44 1.122 10.299 7.807 8.051 13.945-7.89 21.539-29.024 68.057-70.998 92.29z" fill="#ffc344"/></g><g><path d="m354.772 138.063c-22.028 60.522-89.199 91.637-89.199 91.637s-31.456-67.011-9.428-127.534c16.577-45.544 58.717-74.435 78.56-85.946 5.654-3.28 12.908-.64 15.131 5.507 7.802 21.572 21.512 70.792 4.936 116.336z" fill="#ffc344"/></g><g><path d="m203.249 111.493c41.4 49.338 34.76 123.067 34.76 123.067s-73.762-6.264-115.161-55.602c-31.154-37.129-35.104-88.069-35.151-111.008-.013-6.537 5.9-11.499 12.335-10.35 22.583 4.029 72.063 16.765 103.217 53.893z" fill="#ffe177"/></g><g><path d="m122.703 179.209c63.428 11.184 105.734 71.931 105.734 71.931s-60.531 42.614-123.959 31.43c-47.731-8.416-83.501-44.9-98.282-62.442-4.212-4.999-2.872-12.601 2.796-15.858 19.89-11.428 65.98-33.478 113.711-25.061z" fill="#ffe177"/></g><g><path d="m104.528 282.856c55.778-32.203 127.233-12.862 127.233-12.862s-18.978 71.553-74.755 103.756c-41.974 24.234-92.826 19.278-115.425 15.341-6.44-1.122-10.299-7.807-8.051-13.945 7.89-21.539 29.024-68.057 70.998-92.29z" fill="#ffe177"/></g><g><path d="m157.228 373.937c22.028-60.522 89.199-91.637 89.199-91.637s31.456 67.012 9.428 127.534c-16.577 45.544-58.717 74.435-78.56 85.946-5.654 3.28-12.908.64-15.131-5.507-7.802-21.572-21.512-70.792-4.936-116.336z" fill="#ffe177"/></g><g><path d="m256.145 409.834c-22.028-60.522 9.428-127.534 9.428-127.534s67.171 31.114 89.199 91.637c16.577 45.544 2.866 94.764-4.936 116.335-2.223 6.147-9.477 8.787-15.131 5.507-19.843-11.509-61.983-40.4-78.56-85.945z" fill="#ffe177"/></g><g><path d="m354.994 373.751c-55.778-32.203-74.755-103.756-74.755-103.756s71.456-19.342 127.233 12.862c41.974 24.234 63.108 70.751 70.998 92.291 2.248 6.138-1.611 12.823-8.051 13.945-22.599 3.936-73.451 8.891-115.425-15.342z" fill="#ffe177"/></g><g><path d="m407.522 282.57c-63.428 11.184-123.959-31.43-123.959-31.43s42.306-60.747 105.734-71.931c47.731-8.416 93.822 13.633 113.711 25.062 5.668 3.257 7.008 10.859 2.796 15.858-14.781 17.541-50.551 54.025-98.282 62.441z" fill="#ffe177"/></g><g><path d="m389.152 178.957c-41.4 49.338-115.161 55.602-115.161 55.602s-6.64-73.729 34.76-123.067c31.154-37.128 80.635-49.864 103.217-53.893 6.435-1.148 12.349 3.814 12.335 10.35-.047 22.94-3.997 73.88-35.151 111.008z" fill="#ffe177"/></g><g><path d="m308.478 111.394c0 64.406-52.478 116.618-52.478 116.618s-52.478-52.212-52.478-116.618c0-48.467 29.718-90.029 44.427-107.632 4.191-5.016 11.911-5.016 16.102 0 14.709 17.603 44.427 59.164 44.427 107.632z" fill="#ffe177"/></g><g><path d="m247.952 3.761c-2.727 3.264-5.97 7.351-9.444 12.153 15.264 21.098 34.985 55.995 34.985 95.48s-19.722 74.382-34.985 95.48c9.633 13.315 17.492 21.138 17.492 21.138s52.478-52.212 52.478-116.618c0-48.467-29.717-90.028-44.426-107.631-4.19-5.015-11.91-5.017-16.1-.002z" fill="#ffd15b"/></g><g><path d="m87.698 67.947c.009 4.253.152 9.469.577 15.381 25.254 6.351 62.793 20.406 88.173 50.653s32.704 69.656 34.573 95.63c15.939 4.008 26.988 4.949 26.988 4.949s6.64-73.729-34.76-123.067c-31.153-37.128-80.633-49.864-103.216-53.893-6.433-1.148-12.348 3.812-12.335 10.347z" fill="#ffd15b"/></g><g><path d="m6.195 220.125c2.741 3.252 6.203 7.156 10.329 11.411 23.428-11.368 61.219-24.731 100.104-17.874s69.827 32.338 87.954 51.034c14.787-7.175 23.855-13.556 23.855-13.556s-42.306-60.747-105.734-71.931c-47.73-8.416-93.82 13.632-113.71 25.061-5.666 3.256-7.009 10.858-2.798 15.855z" fill="#ffd15b"/></g><g><path d="m41.579 389.09c4.19.73 9.352 1.495 15.247 2.102 10.64-23.768 31-58.296 65.195-78.038s74.277-20.111 100.18-17.441c6.715-15.001 9.56-25.718 9.56-25.718s-71.456-19.342-127.233 12.862c-41.973 24.233-63.108 70.75-70.998 92.29-2.247 6.135 1.611 12.821 8.049 13.943z" fill="#ffd15b"/></g><g><path d="m177.292 495.78c3.679-2.134 8.125-4.866 13.032-8.19-7.127-25.046-13.724-64.583-.22-101.687 13.505-37.104 43.972-63.151 65.531-77.756-4.498-15.808-9.208-25.847-9.208-25.847s-67.171 31.114-89.199 91.637c-16.577 45.544-2.866 94.762 4.935 116.334 2.223 6.146 9.477 8.788 15.129 5.509z" fill="#ffd15b"/></g><g><path d="m349.834 490.275c1.446-4 3.096-8.95 4.718-14.651-21.559-14.605-52.027-40.652-65.531-77.756-13.505-37.104-6.908-76.641.22-101.687-13.607-9.218-23.668-13.881-23.668-13.881s-31.456 67.012-9.428 127.534c16.577 45.544 58.716 74.435 78.559 85.945 5.652 3.279 12.908.641 15.13-5.504z" fill="#ffd15b"/></g><g><path d="m478.47 375.15c-1.463-3.994-3.381-8.846-5.803-14.256-25.903 2.67-65.986 2.301-100.18-17.442s-54.555-54.27-65.195-78.038c-16.349 1.685-27.053 4.58-27.053 4.58s18.978 71.553 74.755 103.756c41.973 24.233 92.825 19.278 115.424 15.341 6.438-1.121 10.3-7.805 8.052-13.941z" fill="#ffd15b"/></g><g><path d="m503.01 204.273c-3.688-2.119-8.277-4.603-13.609-7.19-18.127 18.695-49.069 44.177-87.954 51.034s-76.676-6.506-100.104-17.874c-11.441 11.8-17.78 20.898-17.78 20.898s60.531 42.614 123.959 31.43c47.73-8.416 83.5-44.899 98.281-62.441 4.211-4.998 2.873-12.601-2.793-15.857z" fill="#ffd15b"/></g><g><path d="m411.971 57.6c-4.187.747-9.299 1.794-15.047 3.239-1.869 25.973-9.192 65.383-34.573 95.63s-62.919 44.303-88.173 50.653c-1.18 16.393-.187 27.437-.187 27.437s73.762-6.264 115.161-55.602c31.154-37.128 35.104-88.067 35.151-111.007.013-6.534-5.899-11.498-12.332-10.35z" fill="#ffd15b"/></g><g><circle cx="256" cy="256" fill="#d77f4a" r="116.618"/></g><g><path d="m327.4 163.796c15.301 19.73 24.414 44.499 24.414 71.4 0 64.406-52.212 116.618-116.618 116.618-26.901 0-51.67-9.113-71.4-24.414 21.333 27.508 54.698 45.218 92.204 45.218 64.406 0 116.618-52.212 116.618-116.618 0-37.506-17.71-70.871-45.218-92.204z" fill="#c86d36"/></g></g><path d="m316.084 256 22.106-22.106c2.929-2.93 2.929-7.678 0-10.607-2.93-2.928-7.678-2.928-10.607 0l-22.106 22.106-14.131-14.131 27.681-27.681c2.929-2.93 2.929-7.678 0-10.607-2.93-2.928-7.678-2.928-10.607 0l-27.681 27.681-14.131-14.131 22.106-22.106c2.929-2.93 2.929-7.678 0-10.607-2.93-2.928-7.678-2.928-10.607 0l-22.107 22.105-22.106-22.106c-2.93-2.928-7.678-2.928-10.607 0-2.929 2.93-2.929 7.678 0 10.607l22.106 22.106-14.131 14.131-27.681-27.681c-2.93-2.928-7.678-2.928-10.607 0-2.929 2.93-2.929 7.678 0 10.607l27.681 27.681-14.131 14.131-22.106-22.106c-2.93-2.928-7.678-2.928-10.607 0-2.929 2.93-2.929 7.678 0 10.607l22.105 22.107-22.106 22.106c-2.929 2.93-2.929 7.678 0 10.607 1.465 1.464 3.385 2.196 5.304 2.196s3.839-.732 5.304-2.196l22.106-22.106 14.131 14.131-27.681 27.681c-2.929 2.93-2.929 7.678 0 10.607 1.465 1.464 3.385 2.196 5.304 2.196s3.839-.732 5.304-2.196l27.681-27.681 14.131 14.131-22.106 22.106c-2.929 2.93-2.929 7.678 0 10.607 1.465 1.464 3.385 2.196 5.304 2.196s3.839-.732 5.304-2.196l22.104-22.105 22.106 22.106c1.465 1.464 3.385 2.196 5.304 2.196s3.839-.732 5.304-2.196c2.929-2.93 2.929-7.678 0-10.607l-22.106-22.106 14.131-14.131 27.681 27.681c1.465 1.464 3.385 2.196 5.304 2.196s3.839-.732 5.304-2.196c2.929-2.93 2.929-7.678 0-10.607l-27.681-27.681 14.131-14.131 22.106 22.106c1.465 1.464 3.385 2.196 5.304 2.196s3.839-.732 5.304-2.196c2.929-2.93 2.929-7.678 0-10.607zm-60.084-38.869 14.131 14.131-14.131 14.131-14.131-14.131zm-38.869 38.869 14.131-14.131 14.131 14.131-14.131 14.131zm38.869 38.869-14.131-14.131 14.131-14.131 14.131 14.131zm24.738-24.738-14.131-14.131 14.131-14.131 14.131 14.131z" fill="#ac5e2e"/></g><g/><g/><g/><g/><g/><g/><g/><g/><g/><g/><g/><g/><g/><g/><g/></svg>